<?xml version="1.0" encoding="iso-8859-1"?>
<!-- Generator: Adobe Illustrator 19.0.0, SVG Export Plug-In . SVG Version: 6.00 Build 0)  -->
<svg xmlns="http://www.w3.org/2000/svg" xmlns:xlink="http://www.w3.org/1999/xlink" version="1.1" id="Layer_1" x="0px" y="0px" viewBox="0 0 512 512" style="enable-background:new 0 0 512 512;" xml:space="preserve" width="512" height="512">
<g id="XMLID_1185_">
	<g id="XMLID_1977_">
		<path id="XMLID_1991_" style="fill:#FFFFFF;" d="M160,188.299v271.082C160,471.873,149.873,482,137.381,482h0    c-12.492,0-22.619-10.127-22.619-22.619V335.149v-19.081v143.313c0,12.492-10.127,22.619-22.619,22.619h0    c-12.492,0-22.619-10.127-22.619-22.619V188.299H160z"/>
		<path id="XMLID_1735_" style="fill:#72D8FF;" d="M160,188.299v271.082C160,471.873,149.873,482,137.381,482h0    c-12.492,0-22.619-10.127-22.619-22.619V335.149v-19.081v143.313c0,12.492-10.127,22.619-22.619,22.619h0    c-12.492,0-22.619-10.127-22.619-22.619V188.299H160z"/>
		<path id="XMLID_1733_" style="fill:#FFB954;" d="M172.544,116.917c-7.188-3.526-15.272-5.506-23.818-5.506h-68.09    c-29.906,0-54.15,24.244-54.15,54.15v105.324c0,11.84,9.598,21.438,21.438,21.438h0.162c11.84,0,21.438-9.598,21.438-21.438V256    l103.019,0.127V116.917z"/>
		<path id="XMLID_1990_" style="fill:#FCCD9D;" d="M114.682,111.411L114.682,111.411c-19.983,0-36.183-16.199-36.183-36.183v-9.046    C78.499,46.199,94.698,30,114.681,30h0c19.983,0,36.183,16.199,36.183,36.183v9.046    C150.864,95.211,134.665,111.411,114.682,111.411z"/>
	</g>
	<g id="XMLID_1994_">
		<path id="XMLID_2006_" style="fill:#72D8FF;" d="M352,188.299v271.082C352,471.873,362.127,482,374.618,482h0    c12.492,0,22.619-10.127,22.619-22.619V335.149v-19.081v143.313c0,12.492,10.127,22.619,22.619,22.619h0    c12.492,0,22.619-10.127,22.619-22.619V188.299H352z"/>
		<path id="XMLID_1713_" style="fill:#FFB954;" d="M339.455,116.917c7.188-3.526,15.272-5.506,23.818-5.506h68.09    c29.906,0,54.15,24.244,54.15,54.15v105.324c0,11.84-9.598,21.438-21.438,21.438h-0.162c-11.84,0-21.438-9.598-21.438-21.438V256    l-103.019,0.127V116.917z"/>
		<path id="XMLID_2002_" style="fill:#FCCD9D;" d="M397.318,111.411L397.318,111.411c19.983,0,36.183-16.199,36.183-36.183v-9.046    c0-19.983-16.199-36.183-36.183-36.183h0c-19.983,0-36.183,16.199-36.183,36.183v9.046    C361.135,95.211,377.335,111.411,397.318,111.411z"/>
	</g>
	<g id="XMLID_1976_">
		<path id="XMLID_1987_" style="fill:#A0E557;" d="M305.328,182.308V477.38c0,13.597-11.023,24.62-24.62,24.62h0    c-13.597,0-24.62-11.023-24.62-24.62V342.154v-20.769V477.38c0,13.597-11.023,24.62-24.62,24.62h0    c-13.597,0-24.62-11.023-24.62-24.62V182.308H305.328z"/>
		<path id="XMLID_2678_" style="fill:#4DBAF6;" d="M305.328,256v16.203c0,12.888,10.448,23.336,23.336,23.336h0    c12.888,0,23.336-10.448,23.336-23.336V157.558c0-32.553-26.389-58.942-58.942-58.942h-74.115    c-32.553,0-58.942,26.389-58.942,58.942v114.645c0,12.888,10.448,23.336,23.336,23.336h0.176    c12.888,0,23.336-10.448,23.336-23.336V256H305.328z"/>
		<path id="XMLID_1986_" style="fill:#FCCD9D;" d="M256,98.615L256,98.615c-21.752,0-39.385-17.633-39.385-39.385v-9.846    C216.615,27.633,234.248,10,256,10h0c21.751,0,39.385,17.633,39.385,39.385v9.846C295.384,80.982,277.751,98.615,256,98.615z"/>
	</g>
	<g id="XMLID_40_">
		<path id="XMLID_1507_" d="M435.242,101.539c5.2-7.471,8.259-16.538,8.259-26.311v-9.046c0-25.465-20.717-46.183-46.183-46.183    s-46.183,20.718-46.183,46.183v9.046c0,9.769,3.057,18.832,8.253,26.302c-7.066,0.417-13.901,1.983-20.413,4.658    c-11.607-10.386-26.74-16.898-43.358-17.508c6.132-8.228,9.768-18.422,9.768-29.45v-9.846C305.385,22.154,283.231,0,256,0    s-49.385,22.154-49.385,49.385v9.846c0,11.028,3.635,21.221,9.768,29.45c-16.618,0.611-31.751,7.122-43.358,17.508    c-6.512-2.675-13.347-4.242-20.413-4.658c5.196-7.47,8.253-16.533,8.253-26.302v-9.046c0-25.465-20.717-46.183-46.183-46.183    S68.499,40.718,68.499,66.183v9.046c0,9.772,3.06,18.839,8.259,26.311c-33.572,2.013-60.271,29.953-60.271,64.022v105.324    c0,17.335,14.103,31.438,31.438,31.438h0.162c4.035,0,7.891-0.772,11.438-2.164v159.22c0,17.986,14.633,32.619,32.619,32.619    c8.777,0,16.749-3.491,22.619-9.15c5.869,5.659,13.842,9.15,22.619,9.15C155.367,492,170,477.367,170,459.381V302.746    c4.087,1.791,8.595,2.792,13.335,2.792h0.176c4.74,0,9.249-1.001,13.335-2.792V477.38c0,19.09,15.531,34.62,34.621,34.62    c9.624,0,18.34-3.95,24.62-10.31c6.281,6.36,14.997,10.31,24.62,10.31c19.089,0,34.62-15.53,34.62-34.62V302.746    c4.087,1.792,8.596,2.792,13.336,2.792c4.74,0,9.249-1.001,13.335-2.792v156.635C342,477.367,356.633,492,374.618,492    c8.777,0,16.749-3.491,22.619-9.15c5.869,5.659,13.842,9.15,22.619,9.15c17.986,0,32.619-14.633,32.619-32.619v-49.846    c0-5.522-4.477-10-10-10s-10,4.478-10,10v49.846c0,6.958-5.661,12.619-12.619,12.619s-12.619-5.661-12.619-12.619V335.149v-19.081    c0-5.522-4.477-10-10-10s-10,4.478-10,10v19.081v124.231c0,6.958-5.661,12.619-12.619,12.619S362,466.339,362,459.381V272.203V266    h70.475v4.886v58.649c0,5.522,4.477,10,10,10s10-4.478,10-10v-29.375c3.548,1.391,7.403,2.164,11.438,2.164h0.162    c17.335,0,31.438-14.104,31.438-31.438V165.562C495.513,131.492,468.814,103.552,435.242,101.539z M371.135,66.183    c0-14.438,11.746-26.183,26.183-26.183s26.183,11.745,26.183,26.183v9.046c0,14.438-11.746,26.183-26.183,26.183    s-26.183-11.745-26.183-26.183V66.183z M226.615,49.385C226.615,33.182,239.797,20,256,20s29.385,13.182,29.385,29.385v9.846    c0,16.203-13.182,29.385-29.385,29.385s-29.385-13.182-29.385-29.385V49.385z M88.499,66.183C88.499,51.745,100.244,40,114.681,40    s26.183,11.745,26.183,26.183v9.046c0,14.438-11.746,26.183-26.183,26.183S88.499,89.666,88.499,75.229V66.183z M48.087,282.324    h-0.162c-6.307,0-11.438-5.131-11.438-11.438V165.562c0-24.345,19.806-44.15,44.15-44.15h68.09c3.677,0,7.268,0.454,10.75,1.325    c-6.012,10.228-9.477,22.125-9.477,34.821v30.741V246H79.525v-57.701c0-5.522-4.477-10-10-10s-10,4.478-10,10v82.587    C59.525,277.193,54.394,282.324,48.087,282.324z M150,459.381c0,6.958-5.661,12.619-12.619,12.619s-12.619-5.661-12.619-12.619    V335.149v-19.081c0-5.522-4.477-10-10-10s-10,4.478-10,10v19.081v124.231c0,6.958-5.661,12.619-12.619,12.619    s-12.619-5.661-12.619-12.619V270.886V266H150v6.203V459.381z M295.328,477.38c0,8.062-6.559,14.62-14.62,14.62    c-8.062,0-14.621-6.559-14.621-14.62V342.154v-20.77c0-5.522-4.477-10-10-10s-10,4.478-10,10v20.77V477.38    c0,8.062-6.559,14.62-14.62,14.62c-8.062,0-14.621-6.559-14.621-14.62V272.203V266h78.481v6.203V477.38z M328.664,285.538    c-7.354,0-13.336-5.982-13.336-13.335v-89.896c0-5.522-4.477-10-10-10s-10,4.478-10,10V246h-78.481v-63.692    c0-5.522-4.477-10-10-10s-10,4.478-10,10v89.896c0,7.353-5.982,13.335-13.335,13.335h-0.176c-7.353,0-13.335-5.982-13.335-13.335    v-83.904v-30.741c0-26.987,21.956-48.942,48.942-48.942h27.069c-0.002,0.076-0.011,0.15-0.011,0.227v41.491    c0,5.522,4.477,10,10,10s10-4.478,10-10v-41.491c0-0.076-0.01-0.15-0.011-0.227h27.069c26.987,0,48.942,21.955,48.942,48.942    v30.741v83.904C342,279.556,336.017,285.538,328.664,285.538z M475.513,270.886c0,6.308-5.131,11.438-11.438,11.438h-0.162    c-6.307,0-11.438-5.131-11.438-11.438v-82.587c0-5.522-4.477-10-10-10s-10,4.478-10,10V246H362v-57.701v-30.741    c0-12.697-3.465-24.594-9.477-34.821c3.483-0.871,7.073-1.325,10.75-1.325h68.09c24.345,0,44.15,19.806,44.15,44.15V270.886z"/>
		<path id="XMLID_1519_" d="M435.4,362.05c-1.86,1.87-2.92,4.44-2.92,7.07c0,2.64,1.06,5.21,2.92,7.069    c1.87,1.87,4.45,2.94,7.08,2.94c2.62,0,5.2-1.07,7.07-2.94c1.86-1.859,2.92-4.43,2.92-7.069c0-2.63-1.06-5.2-2.92-7.07    c-1.87-1.86-4.44-2.93-7.07-2.93C439.84,359.12,437.27,360.189,435.4,362.05z"/>
	</g>
</g>















</svg>
